<svg width="22" height="22" viewBox="0 0 22 22" fill="none" xmlns="http://www.w3.org/2000/svg">
<path d="M7.9277 14.1456C7.88303 14.1648 7.83783 14.1196 7.85701 14.075L9.46392 10.3326C9.47894 10.2977 9.52452 10.2889 9.55143 10.3158L11.6868 12.4512C11.7138 12.4781 11.705 12.5237 11.67 12.5387L7.9277 14.1456Z" fill="white"/>
<path d="M15.6016 1.28564C18.4251 1.28564 20.7146 3.57446 20.7148 6.39795V15.6011C20.7148 18.4248 18.4253 20.7144 15.6016 20.7144H6.39844C3.57494 20.7141 1.28613 18.4246 1.28613 15.6011V6.39795C1.28639 3.57461 3.5751 1.2859 6.39844 1.28564H15.6016ZM15.957 6.82959C16.1841 6.29489 15.6451 5.75585 15.1104 5.98291L8.9541 8.59717C8.8001 8.66257 8.67673 8.78496 8.61133 8.93896L5.99707 15.0952C5.77008 15.6298 6.30921 16.1694 6.84375 15.9429L13.001 13.3276C13.1548 13.2622 13.2774 13.1397 13.3428 12.9858L15.957 6.82959Z" fill="white"/>
</svg>
