<svg width="27" height="26" viewBox="0 0 27 26" fill="none" xmlns="http://www.w3.org/2000/svg">
<path d="M13.5 0.111084C16.0492 0.111084 18.5411 0.867004 20.6607 2.28325C22.7803 3.6995 24.4323 5.71247 25.4078 8.06761C26.3833 10.4227 26.6386 13.0143 26.1413 15.5145C25.6439 18.0147 24.4164 20.3113 22.6138 22.1138C20.8113 23.9163 18.5147 25.1439 16.0145 25.6412C13.5143 26.1385 10.9228 25.8833 8.56766 24.9078C6.21252 23.9322 4.19955 22.2802 2.7833 20.1607C1.36705 18.0411 0.611132 15.5492 0.611132 13C0.611132 9.58163 1.96906 6.30329 4.3862 3.88615C6.80334 1.46902 10.0817 0.111084 13.5 0.111084ZM22.7881 13.8055H24.7375C24.7375 13.5397 24.7778 13.2739 24.7778 13C24.7778 12.7261 24.7778 12.4603 24.7375 12.1944H22.7881V13.8055ZM14.3056 1.76247C14.0397 1.76247 13.7739 1.7222 13.5 1.7222C13.2261 1.7222 12.9603 1.7222 12.6945 1.76247V3.71192H14.3056V1.76247ZM12.6945 24.2375C12.9603 24.2375 13.2261 24.2778 13.5 24.2778C13.7739 24.2778 14.0397 24.2778 14.3056 24.2375V22.288H12.6945V24.2375ZM6.25002 19.7425C6.31623 19.8212 6.40621 19.8764 6.50644 19.8996C6.60667 19.9228 6.71174 19.9129 6.80585 19.8714L15.3125 14.9172L20.2667 6.41053C20.4681 6.03192 19.9525 5.52442 19.5739 5.73386L11.2203 10.833L6.12113 19.1866C6.07956 19.2808 6.06964 19.3858 6.09289 19.486C6.11613 19.5863 6.17127 19.6763 6.25002 19.7425ZM4.21196 13.8055V12.1944H2.26252C2.26252 12.4603 2.22224 12.7261 2.22224 13C2.22224 13.2739 2.22224 13.5397 2.26252 13.8055H4.21196Z" fill="white"/>
</svg>
