<svg width="22" height="24" viewBox="0 0 22 24" fill="none" xmlns="http://www.w3.org/2000/svg">
<path d="M21.6667 21.3333V9.33335C21.6667 8.91113 21.5721 8.51113 21.3827 8.13335C21.1934 7.75557 20.9325 7.44446 20.6001 7.20002L12.6001 1.20002C12.1334 0.844465 11.6001 0.666687 11.0001 0.666687C10.4001 0.666687 9.86675 0.844465 9.40009 1.20002L1.40009 7.20002C1.06676 7.44446 0.805424 7.75557 0.616091 8.13335C0.426756 8.51113 0.332535 8.91113 0.333424 9.33335V21.3333C0.333424 22.0667 0.594755 22.6947 1.11742 23.2173C1.64009 23.74 2.26764 24.0009 3.00009 24H7.00009C7.37786 24 7.69431 23.872 7.94942 23.616C8.20453 23.36 8.33253 23.0436 8.33342 22.6667V16C8.33342 15.6222 8.46142 15.3058 8.71742 15.0507C8.97342 14.7956 9.28986 14.6676 9.66675 14.6667H12.3334C12.7112 14.6667 13.0276 14.7947 13.2828 15.0507C13.5379 15.3067 13.6659 15.6231 13.6668 16V22.6667C13.6668 23.0445 13.7948 23.3613 14.0508 23.6173C14.3068 23.8733 14.6232 24.0009 15.0001 24H19.0001C19.7334 24 20.361 23.7391 20.8827 23.2173C21.4045 22.6956 21.6659 22.0676 21.6667 21.3333Z" fill="white"/>
</svg>
