<svg width="24" height="23" viewBox="0 0 24 23" fill="none" xmlns="http://www.w3.org/2000/svg">
<path d="M21.4248 19.2439V8.61269C21.4248 8.23863 21.3409 7.88426 21.1732 7.54957C21.0055 7.21488 20.7743 6.93926 20.4798 6.72269L13.3923 1.40707C12.9789 1.09207 12.5064 0.93457 11.9748 0.93457C11.4432 0.93457 10.9707 1.09207 10.5573 1.40707L3.46981 6.72269C3.1745 6.93926 2.94297 7.21488 2.77524 7.54957C2.6075 7.88426 2.52402 8.23863 2.52481 8.61269V19.2439C2.52481 19.8936 2.75633 20.45 3.21938 20.913C3.68243 21.3761 4.23841 21.6072 4.88731 21.6064H8.43106C8.76575 21.6064 9.0461 21.493 9.27211 21.2662C9.49812 21.0394 9.61152 20.7591 9.61231 20.4252V14.5189C9.61231 14.1843 9.72571 13.9039 9.95251 13.6779C10.1793 13.4519 10.4597 13.3385 10.7936 13.3377H13.1561C13.4907 13.3377 13.7711 13.4511 13.9971 13.6779C14.2231 13.9047 14.3365 14.185 14.3373 14.5189V20.4252C14.3373 20.7599 14.4507 21.0406 14.6775 21.2674C14.9043 21.4942 15.1847 21.6072 15.5186 21.6064H19.0623C19.712 21.6064 20.268 21.3753 20.7302 20.913C21.1925 20.4508 21.424 19.8944 21.4248 19.2439Z" fill="white"/>
</svg>
