<svg width="28" height="28" viewBox="0 0 28 28" fill="none" xmlns="http://www.w3.org/2000/svg">
<path d="M9.86925 14.8454L12.6666 13.2307V7.33335C12.6666 6.97973 12.8071 6.64059 13.0571 6.39054C13.3072 6.1405 13.6463 6.00002 13.9999 6.00002C14.3535 6.00002 14.6927 6.1405 14.9427 6.39054C15.1928 6.64059 15.3332 6.97973 15.3332 7.33335V14C15.3332 14.2341 15.2716 14.464 15.1546 14.6667C15.0376 14.8694 14.8693 15.0377 14.6666 15.1547L11.2026 17.1547C11.0509 17.2436 10.8831 17.3017 10.7089 17.3255C10.5347 17.3493 10.3574 17.3384 10.1875 17.2935C10.0175 17.2485 9.85802 17.1704 9.71834 17.0636C9.57866 16.9568 9.46148 16.8234 9.37356 16.6711C9.28564 16.5188 9.22871 16.3507 9.20604 16.1763C9.18338 16.0019 9.19543 15.8248 9.2415 15.6551C9.28757 15.4854 9.36675 15.3265 9.47449 15.1875C9.58223 15.0486 9.71638 14.9323 9.86925 14.8454ZM13.9999 0.666687C16.637 0.666687 19.2149 1.44867 21.4075 2.91376C23.6002 4.37884 25.3091 6.46123 26.3183 8.89757C27.3275 11.3339 27.5915 14.0148 27.077 16.6012C26.5626 19.1876 25.2927 21.5634 23.428 23.4281C21.5633 25.2928 19.1875 26.5627 16.6011 27.0772C14.0147 27.5916 11.3338 27.3276 8.89746 26.3184C6.46112 25.3092 4.37874 23.6003 2.91365 21.4076C1.44857 19.215 0.66658 16.6371 0.66658 14C0.670109 10.4649 2.076 7.07555 4.57572 4.57583C7.07544 2.07611 10.4648 0.670217 13.9999 0.666687ZM13.9999 24.6667C16.1096 24.6667 18.1719 24.0411 19.926 22.869C21.6801 21.697 23.0473 20.0311 23.8546 18.082C24.662 16.1329 24.8732 13.9882 24.4616 11.9191C24.05 9.84993 23.0341 7.94931 21.5424 6.45755C20.0506 4.96579 18.15 3.94989 16.0809 3.53831C14.0117 3.12674 11.867 3.33797 9.91796 4.14531C7.96888 4.95264 6.30297 6.31981 5.13091 8.07394C3.95884 9.82806 3.33325 11.8904 3.33325 14C3.33677 16.8279 4.46171 19.539 6.46134 21.5386C8.46096 23.5382 11.172 24.6632 13.9999 24.6667Z" fill="white"/>
</svg>
