<svg width="326" height="334" viewBox="0 0 326 334" fill="none" xmlns="http://www.w3.org/2000/svg">
<path d="M176.914 90.9697L163.021 96.1582L149.601 91.3555L149.56 89.9414L163.064 94.7852L176.914 89.4414V90.9697ZM176.914 88.585L163.064 93.9707L149.558 89.126V89.8428L149.188 76.8242L162.979 81.1504L176.914 76.5049V88.585ZM149.56 89.9414L149.558 89.9404V89.8428L149.56 89.9414ZM176.957 89.4258L176.914 89.4414V88.585L176.957 88.5684V89.4258ZM176.914 70.1299V74.8311L162.979 79.3916L149.172 74.8896V76.2646L149 70.2158L163.235 67L176.914 70.1299ZM149.188 76.8242L149.172 76.8193V76.2646L149.188 76.8242ZM177 76.4766L176.914 76.5049V74.8311L177 74.8037V76.4766ZM151.188 70.6445L163.193 74.375L174.771 70.5586L163.193 67.9434L151.188 70.6445Z" fill="white"/>
<rect x="162" width="3" height="14" fill="#E54D4D"/>
</svg>
