<svg width="360" height="365" viewBox="0 0 360 365" fill="none" xmlns="http://www.w3.org/2000/svg">
<path d="M193.445 54.4722L180.283 59.3872L167.568 54.8374L167.53 53.4966L180.324 58.0874L193.445 53.0239V54.4722ZM193.445 52.2114L180.324 57.3159L167.528 52.7251V53.4263L167.177 41.0718L180.243 45.1694L193.445 40.7681V52.2114ZM167.53 53.4966H167.528V53.4263L167.53 53.4966ZM193.485 53.0093L193.445 53.0239V52.2114L193.485 52.1968V53.0093ZM193.445 34.73V39.1841L180.243 43.5044L167.162 39.2388V40.5229L167 34.811L180.486 31.7642L193.445 34.73ZM167.177 41.0718L167.162 41.0669V40.5229L167.177 41.0718ZM193.526 40.7417L193.445 40.7681V39.1841L193.526 39.1577V40.7417ZM169.071 35.2173L180.446 38.7515L191.414 35.1362L180.446 32.6577L169.071 35.2173Z" fill="#0A2239"/>
<rect x="179.263" width="3" height="16" fill="#E54D4D"/>
</svg>
