<svg width="360" height="360" viewBox="0 0 360 360" fill="none" xmlns="http://www.w3.org/2000/svg">
<path d="M170.354 11.9504L169.682 11.4405L169.682 11.4405L170.354 11.9504ZM171.773 11.317L171.547 10.5042L171.547 10.5042L171.773 11.317ZM179.648 9.12494L179.422 8.31209L179.422 8.3121L179.648 9.12494ZM180.852 9.12494L181.078 8.3121L181.078 8.31209L180.852 9.12494ZM188.727 11.317L188.953 10.5042L188.953 10.5042L188.727 11.317ZM190.146 11.9504L189.473 12.4602L189.473 12.4604L190.146 11.9504ZM169 30.6562C168.534 30.6562 168.156 31.034 168.156 31.5C168.156 31.966 168.534 32.3438 169 32.3438V30.6562ZM191.5 32.3438C191.966 32.3438 192.344 31.966 192.344 31.5C192.344 31.034 191.966 30.6562 191.5 30.6562V32.3438ZM179.762 14.6799L179.574 13.8572L179.574 13.8572L179.762 14.6799ZM180.738 14.6799L180.926 13.8572L180.926 13.8572L180.738 14.6799ZM189.039 20.2138C188.584 20.1128 188.134 20.3996 188.033 20.8545C187.932 21.3094 188.218 21.7601 188.673 21.8612L189.039 20.2138ZM190.192 22.1987C190.647 22.2997 191.098 22.0129 191.199 21.558C191.3 21.1031 191.013 20.6524 190.558 20.5513L190.192 22.1987ZM184.483 19.2013C184.028 19.1003 183.577 19.3871 183.476 19.842C183.375 20.2969 183.662 20.7476 184.117 20.8487L184.483 19.2013ZM185.129 21.0737C185.584 21.1747 186.035 20.8879 186.136 20.433C186.237 19.9781 185.95 19.5274 185.496 19.4263L185.129 21.0737ZM181.079 20.1737C181.534 20.2747 181.985 19.9879 182.086 19.533C182.187 19.0781 181.9 18.6274 181.446 18.5263L181.079 20.1737ZM180.25 19.125L180.433 18.3013L180.25 18.2607L180.067 18.3013L180.25 19.125ZM179.054 18.5263C178.6 18.6274 178.313 19.0781 178.414 19.533C178.515 19.9879 178.966 20.2747 179.421 20.1737L179.054 18.5263ZM171.827 21.8612C172.282 21.7601 172.568 21.3094 172.467 20.8545C172.366 20.3996 171.916 20.1128 171.461 20.2138L171.827 21.8612ZM169.942 20.5513C169.487 20.6524 169.2 21.1031 169.301 21.558C169.402 22.0129 169.853 22.2997 170.308 22.1987L169.942 20.5513ZM176.383 20.8487C176.838 20.7476 177.125 20.2969 177.024 19.842C176.923 19.3871 176.472 19.1003 176.017 19.2013L176.383 20.8487ZM175.004 19.4263C174.55 19.5274 174.263 19.9781 174.364 20.433C174.465 20.8879 174.916 21.1747 175.371 21.0737L175.004 19.4263ZM170.125 31.5H170.969V13.4895H170.125H169.281V31.5H170.125ZM170.125 13.4895H170.969C170.969 13.0572 170.97 12.806 170.992 12.6227C171.001 12.5398 171.013 12.4967 171.02 12.4762C171.023 12.4668 171.025 12.4626 171.026 12.4617C171.026 12.461 171.026 12.4609 171.027 12.4603L170.354 11.9504L169.682 11.4405C169.443 11.7558 169.354 12.0991 169.316 12.4257C169.28 12.7302 169.281 13.0974 169.281 13.4895H170.125ZM170.354 11.9504L171.027 12.4603C171.027 12.4598 171.027 12.4597 171.028 12.4592C171.028 12.4586 171.032 12.4555 171.04 12.4499C171.057 12.4378 171.095 12.4154 171.172 12.3838C171.342 12.3141 171.583 12.2456 171.999 12.1299L171.773 11.317L171.547 10.5042C171.17 10.6091 170.816 10.7062 170.532 10.8224C170.228 10.9471 169.921 11.1252 169.682 11.4405L170.354 11.9504ZM171.773 11.317L171.999 12.1299L179.874 9.93779L179.648 9.12494L179.422 8.3121L171.547 10.5042L171.773 11.317ZM179.648 9.12494L179.874 9.93779C180.032 9.89385 180.119 9.86984 180.186 9.85501C180.216 9.84842 180.233 9.84574 180.241 9.84459C180.246 9.84405 180.248 9.84386 180.249 9.8438C180.249 9.84377 180.25 9.84376 180.25 9.84375C180.25 9.84375 180.25 9.84375 180.25 9.84375V9V8.15625C179.955 8.15625 179.677 8.24088 179.422 8.31209L179.648 9.12494ZM180.25 9V9.84375C180.25 9.84375 180.25 9.84375 180.25 9.84375C180.25 9.84376 180.251 9.84377 180.251 9.8438C180.252 9.84386 180.254 9.84405 180.259 9.84459C180.267 9.84574 180.284 9.84842 180.314 9.85501C180.381 9.86984 180.468 9.89385 180.626 9.93779L180.852 9.12494L181.078 8.31209C180.823 8.24088 180.545 8.15625 180.25 8.15625V9ZM180.852 9.12494L180.626 9.93779L188.501 12.1299L188.727 11.317L188.953 10.5042L181.078 8.3121L180.852 9.12494ZM188.727 11.317L188.501 12.1299C188.917 12.2456 189.158 12.3141 189.328 12.3838C189.405 12.4154 189.443 12.4378 189.46 12.4499C189.468 12.4555 189.472 12.4586 189.472 12.4592C189.473 12.4597 189.473 12.4597 189.473 12.4602L190.146 11.9504L190.818 11.4406C190.579 11.1252 190.272 10.9471 189.968 10.8224C189.684 10.7062 189.33 10.6091 188.953 10.5042L188.727 11.317ZM190.146 11.9504L189.473 12.4604C189.474 12.4609 189.474 12.461 189.474 12.4617C189.475 12.4626 189.477 12.4668 189.48 12.4763C189.487 12.4968 189.499 12.5398 189.508 12.6227C189.53 12.806 189.531 13.0572 189.531 13.4895H190.375H191.219C191.219 13.0974 191.22 12.7302 191.184 12.4257C191.146 12.0991 191.057 11.7557 190.818 11.4405L190.146 11.9504ZM190.375 13.4895H189.531V31.5H190.375H191.219V13.4895H190.375ZM169 31.5V32.3438H191.5V31.5V30.6562H169V31.5ZM170.125 16.875L170.312 17.6977L179.949 15.5026L179.762 14.6799L179.574 13.8572L169.938 16.0523L170.125 16.875ZM179.762 14.6799L179.949 15.5026C180.147 15.4575 180.353 15.4575 180.551 15.5026L180.738 14.6799L180.926 13.8572C180.481 13.7559 180.019 13.7559 179.574 13.8572L179.762 14.6799ZM180.738 14.6799L180.551 15.5026L190.188 17.6977L190.375 16.875L190.562 16.0523L180.926 13.8572L180.738 14.6799ZM188.856 21.0375L188.673 21.8612L190.192 22.1987L190.375 21.375L190.558 20.5513L189.039 20.2138L188.856 21.0375ZM184.3 20.025L184.117 20.8487L185.129 21.0737L185.312 20.25L185.496 19.4263L184.483 19.2013L184.3 20.025ZM181.262 19.35L181.446 18.5263L180.433 18.3013L180.25 19.125L180.067 19.9487L181.079 20.1737L181.262 19.35ZM180.25 19.125L180.067 18.3013L179.054 18.5263L179.238 19.35L179.421 20.1737L180.433 19.9487L180.25 19.125ZM171.644 21.0375L171.461 20.2138L169.942 20.5513L170.125 21.375L170.308 22.1987L171.827 21.8612L171.644 21.0375ZM176.2 20.025L176.017 19.2013L175.004 19.4263L175.188 20.25L175.371 21.0737L176.383 20.8487L176.2 20.025ZM180.25 14.625H179.406V31.5H180.25H181.094V14.625H180.25Z" fill="#0A2239"/>
<circle cx="180" cy="180" r="179.5" stroke="#F0F8FF"/>
</svg>
