<svg width="677" height="677" viewBox="0 0 677 677" fill="none" xmlns="http://www.w3.org/2000/svg">
<circle cx="338.5" cy="338.5" r="338.5" transform="rotate(90 338.5 338.5)" fill="#F0F8FF"/>
<circle cx="338" cy="339" r="132" transform="rotate(90 338 339)" stroke="#658BA8" stroke-opacity="0.25" stroke-width="10" stroke-miterlimit="4.09204" stroke-dasharray="2.5 2.5"/>
<path d="M347.561 8.72727V32H343.811L332.845 16.1477H332.652V32H328.436V8.72727H332.209L343.163 24.5909H343.368V8.72727H347.561Z" fill="black"/>
<path d="M333.338 662.875C333.444 663.867 333.891 664.64 334.679 665.193C335.459 665.746 336.474 666.023 337.724 666.023C338.603 666.023 339.357 665.89 339.986 665.625C340.615 665.36 341.096 665 341.429 664.545C341.762 664.091 341.933 663.572 341.94 662.989C341.94 662.504 341.83 662.083 341.611 661.727C341.384 661.371 341.077 661.068 340.69 660.818C340.304 660.576 339.876 660.371 339.406 660.205C338.937 660.038 338.463 659.898 337.986 659.784L335.804 659.239C334.925 659.034 334.08 658.758 333.27 658.409C332.452 658.061 331.721 657.621 331.077 657.091C330.425 656.561 329.91 655.92 329.531 655.17C329.152 654.42 328.963 653.542 328.963 652.534C328.963 651.17 329.312 649.97 330.009 648.932C330.705 647.902 331.713 647.095 333.031 646.511C334.342 645.936 335.929 645.648 337.793 645.648C339.603 645.648 341.175 645.928 342.509 646.489C343.834 647.049 344.872 647.867 345.622 648.943C346.365 650.019 346.766 651.33 346.827 652.875H342.679C342.618 652.064 342.368 651.39 341.929 650.852C341.49 650.314 340.918 649.913 340.213 649.648C339.501 649.383 338.705 649.25 337.827 649.25C336.91 649.25 336.107 649.386 335.418 649.659C334.721 649.939 334.175 650.326 333.781 650.818C333.387 651.318 333.187 651.902 333.179 652.568C333.187 653.174 333.365 653.674 333.713 654.068C334.062 654.47 334.55 654.803 335.179 655.068C335.8 655.341 336.527 655.583 337.361 655.795L340.009 656.477C341.925 656.97 343.44 657.716 344.554 658.716C345.66 659.723 346.213 661.061 346.213 662.727C346.213 664.098 345.842 665.299 345.099 666.33C344.349 667.36 343.33 668.159 342.043 668.727C340.755 669.303 339.296 669.591 337.668 669.591C336.016 669.591 334.569 669.303 333.327 668.727C332.077 668.159 331.096 667.367 330.384 666.352C329.671 665.345 329.304 664.186 329.281 662.875H333.338Z" fill="black"/>
<path d="M646 331.077H669.273V346.213H665.739V335.293H659.42V345.429H655.886V335.293H649.534V346.304H646V331.077Z" fill="black"/>
<path d="M7 329.974L30.2727 323.406V327.94L13.1705 332.134V332.349L30.2727 336.827V340.952L13.1591 345.44V345.645L30.2727 349.838V354.372L7 347.804V343.645L23.3295 338.986V338.804L7 334.134V329.974Z" fill="black"/>
<path d="M447 322.265H458.636V329.833H456.869V324.373H453.71V329.441H451.943V324.373H448.767V329.879H447V322.265ZM446.824 334.404C446.824 333.851 446.922 333.353 447.119 332.91C447.32 332.47 447.616 332.122 448.006 331.864C448.396 331.611 448.877 331.484 449.449 331.484C449.941 331.484 450.348 331.575 450.67 331.756C450.992 331.938 451.25 332.186 451.443 332.501C451.636 332.815 451.782 333.169 451.881 333.563C451.983 333.961 452.057 334.372 452.102 334.796C452.155 335.308 452.203 335.722 452.244 336.04C452.29 336.359 452.358 336.59 452.449 336.734C452.544 336.881 452.689 336.955 452.886 336.955H452.92C453.348 336.955 453.68 336.828 453.915 336.575C454.15 336.321 454.267 335.955 454.267 335.478C454.267 334.974 454.157 334.575 453.938 334.279C453.718 333.987 453.458 333.79 453.159 333.688L453.432 331.768C453.962 331.919 454.405 332.169 454.761 332.518C455.121 332.866 455.39 333.292 455.568 333.796C455.75 334.3 455.841 334.857 455.841 335.467C455.841 335.887 455.792 336.306 455.693 336.722C455.595 337.139 455.432 337.52 455.205 337.864C454.981 338.209 454.676 338.486 454.29 338.694C453.903 338.906 453.42 339.012 452.841 339.012H447V337.035H448.199V336.967C447.956 336.842 447.729 336.665 447.517 336.438C447.309 336.215 447.14 335.933 447.011 335.592C446.886 335.254 446.824 334.859 446.824 334.404ZM448.335 334.938C448.335 335.351 448.417 335.709 448.58 336.012C448.746 336.315 448.966 336.548 449.239 336.711C449.511 336.878 449.809 336.961 450.131 336.961H451.159C451.106 336.897 451.057 336.787 451.011 336.631C450.966 336.48 450.926 336.309 450.892 336.12C450.858 335.931 450.828 335.743 450.801 335.558C450.775 335.372 450.752 335.211 450.733 335.075C450.691 334.768 450.623 334.493 450.528 334.251C450.434 334.008 450.301 333.817 450.131 333.677C449.964 333.537 449.748 333.467 449.483 333.467C449.104 333.467 448.818 333.605 448.625 333.881C448.432 334.158 448.335 334.51 448.335 334.938ZM453.42 347.978L453.216 346.103C453.405 346.05 453.583 345.957 453.75 345.825C453.917 345.696 454.051 345.522 454.153 345.302C454.256 345.082 454.307 344.813 454.307 344.495C454.307 344.067 454.214 343.707 454.028 343.415C453.843 343.128 453.602 342.986 453.307 342.989C453.053 342.986 452.847 343.078 452.688 343.268C452.528 343.461 452.398 343.779 452.295 344.222L451.977 345.711C451.799 346.537 451.517 347.15 451.131 347.552C450.744 347.957 450.239 348.162 449.614 348.165C449.064 348.162 448.58 348.001 448.159 347.683C447.742 347.368 447.417 346.931 447.182 346.37C446.947 345.809 446.83 345.165 446.83 344.438C446.83 343.37 447.053 342.51 447.5 341.859C447.951 341.207 448.578 340.819 449.381 340.694L449.574 342.7C449.18 342.79 448.883 342.984 448.682 343.279C448.481 343.575 448.381 343.959 448.381 344.433C448.381 344.921 448.481 345.313 448.682 345.609C448.883 345.908 449.131 346.058 449.426 346.058C449.676 346.058 449.883 345.961 450.045 345.768C450.208 345.578 450.333 345.283 450.42 344.881L450.733 343.393C450.907 342.556 451.201 341.936 451.614 341.535C452.03 341.133 452.557 340.934 453.193 340.938C453.731 340.934 454.197 341.08 454.591 341.376C454.989 341.675 455.295 342.09 455.511 342.62C455.731 343.154 455.841 343.77 455.841 344.467C455.841 345.489 455.623 346.294 455.188 346.881C454.752 347.472 454.163 347.838 453.42 347.978ZM455.727 354.219H454.136V349.202H455.727V354.219ZM457.818 350.441V352.498H449.625C449.348 352.498 449.136 352.54 448.989 352.623C448.845 352.71 448.746 352.824 448.693 352.964C448.64 353.104 448.614 353.259 448.614 353.43C448.614 353.558 448.623 353.676 448.642 353.782C448.661 353.892 448.678 353.975 448.693 354.032L447.085 354.379C447.047 354.269 447.006 354.112 446.96 353.907C446.915 353.706 446.888 353.46 446.881 353.168C446.866 352.653 446.943 352.189 447.114 351.776C447.288 351.363 447.557 351.036 447.92 350.793C448.284 350.555 448.739 350.437 449.284 350.441H457.818Z" fill="black"/>
<path d="M353.497 454.438C353.55 454.934 353.774 455.32 354.168 455.597C354.558 455.873 355.065 456.011 355.69 456.011C356.13 456.011 356.507 455.945 356.821 455.812C357.135 455.68 357.376 455.5 357.543 455.273C357.709 455.045 357.795 454.786 357.798 454.494C357.798 454.252 357.743 454.042 357.634 453.864C357.52 453.686 357.366 453.534 357.173 453.409C356.98 453.288 356.766 453.186 356.531 453.102C356.296 453.019 356.06 452.949 355.821 452.892L354.73 452.619C354.291 452.517 353.868 452.379 353.463 452.205C353.054 452.03 352.688 451.811 352.366 451.545C352.041 451.28 351.783 450.96 351.594 450.585C351.404 450.21 351.31 449.771 351.31 449.267C351.31 448.585 351.484 447.985 351.832 447.466C352.181 446.951 352.685 446.547 353.344 446.256C353.999 445.968 354.793 445.824 355.724 445.824C356.63 445.824 357.416 445.964 358.082 446.244C358.745 446.525 359.264 446.934 359.639 447.472C360.01 448.009 360.211 448.665 360.241 449.438H358.168C358.137 449.032 358.012 448.695 357.793 448.426C357.573 448.157 357.287 447.956 356.935 447.824C356.579 447.691 356.181 447.625 355.741 447.625C355.283 447.625 354.882 447.693 354.537 447.83C354.188 447.97 353.916 448.163 353.719 448.409C353.522 448.659 353.421 448.951 353.418 449.284C353.421 449.587 353.51 449.837 353.685 450.034C353.859 450.235 354.103 450.402 354.418 450.534C354.728 450.67 355.092 450.792 355.509 450.898L356.832 451.239C357.791 451.485 358.548 451.858 359.105 452.358C359.658 452.862 359.935 453.53 359.935 454.364C359.935 455.049 359.749 455.65 359.378 456.165C359.003 456.68 358.493 457.08 357.849 457.364C357.205 457.652 356.476 457.795 355.662 457.795C354.836 457.795 354.113 457.652 353.491 457.364C352.866 457.08 352.376 456.684 352.02 456.176C351.664 455.672 351.48 455.093 351.469 454.438H353.497ZM345.714 445.83C346.567 445.83 347.305 446.017 347.93 446.392C348.555 446.767 349.04 447.292 349.385 447.966C349.726 448.64 349.896 449.428 349.896 450.33C349.896 451.231 349.726 452.021 349.385 452.699C349.04 453.377 348.555 453.903 347.93 454.278C347.305 454.653 346.567 454.841 345.714 454.841C344.862 454.841 344.124 454.653 343.499 454.278C342.874 453.903 342.391 453.377 342.05 452.699C341.705 452.021 341.533 451.231 341.533 450.33C341.533 449.428 341.705 448.64 342.05 447.966C342.391 447.292 342.874 446.767 343.499 446.392C344.124 446.017 344.862 445.83 345.714 445.83ZM345.703 447.477C345.241 447.477 344.855 447.604 344.544 447.858C344.233 448.116 344.002 448.46 343.851 448.892C343.696 449.324 343.618 449.805 343.618 450.335C343.618 450.869 343.696 451.352 343.851 451.784C344.002 452.22 344.233 452.566 344.544 452.824C344.855 453.081 345.241 453.21 345.703 453.21C346.177 453.21 346.571 453.081 346.885 452.824C347.196 452.566 347.429 452.22 347.584 451.784C347.735 451.352 347.811 450.869 347.811 450.335C347.811 449.805 347.735 449.324 347.584 448.892C347.429 448.46 347.196 448.116 346.885 447.858C346.571 447.604 346.177 447.477 345.703 447.477ZM334.224 449.67V454.727H332.168V446H334.162V447.551H334.253C334.45 447.063 334.774 446.663 335.224 446.352C335.671 446.042 336.223 445.886 336.878 445.886C337.45 445.886 337.955 446.013 338.395 446.267C338.83 446.525 339.171 446.898 339.418 447.386C339.664 447.879 339.787 448.473 339.787 449.17V454.727H337.73V449.489C337.73 448.936 337.579 448.496 337.276 448.17C336.973 447.845 336.575 447.682 336.082 447.682C335.779 447.682 335.486 447.756 335.202 447.903C334.918 448.051 334.685 448.271 334.503 448.562C334.317 448.858 334.224 449.227 334.224 449.67ZM325.695 454.727V453.136H330.712V454.727H325.695ZM329.473 456.818H327.416V448.625C327.416 448.348 327.375 448.136 327.291 447.989C327.204 447.845 327.09 447.746 326.95 447.693C326.81 447.64 326.655 447.614 326.484 447.614C326.356 447.614 326.238 447.623 326.132 447.642C326.022 447.661 325.939 447.678 325.882 447.693L325.536 446.085C325.645 446.047 325.803 446.006 326.007 445.96C326.208 445.915 326.454 445.888 326.746 445.881C327.261 445.866 327.725 445.943 328.138 446.114C328.551 446.288 328.878 446.557 329.121 446.92C329.359 447.284 329.477 447.739 329.473 448.284V456.818ZM321.73 451.114V446H323.787V457.636H321.776V453.244H321.673C321.469 453.737 321.152 454.125 320.724 454.409C320.293 454.697 319.743 454.841 319.077 454.841C318.471 454.841 317.942 454.714 317.491 454.46C317.041 454.206 316.692 453.835 316.446 453.347C316.196 452.858 316.071 452.261 316.071 451.557V446H318.128V451.239C318.128 451.826 318.279 452.282 318.582 452.608C318.882 452.938 319.302 453.102 319.844 453.102C320.207 453.102 320.533 453.023 320.821 452.864C321.105 452.708 321.329 452.483 321.491 452.188C321.651 451.892 321.73 451.534 321.73 451.114Z" fill="black"/>
<path d="M231 355.185L219.364 358.469V356.202L227.915 354.105V353.997L219.364 351.759V349.696L227.92 347.452V347.349L219.364 345.253V342.986L231 346.27V348.349L222.835 350.679V350.77L231 353.105V355.185ZM231.17 338.642C231.17 339.517 230.989 340.273 230.625 340.909C230.258 341.542 229.739 342.028 229.068 342.369C228.394 342.71 227.6 342.881 226.688 342.881C225.79 342.881 225.002 342.71 224.324 342.369C223.642 342.025 223.112 341.544 222.733 340.926C222.35 340.309 222.159 339.583 222.159 338.75C222.159 338.212 222.246 337.705 222.42 337.227C222.591 336.746 222.856 336.322 223.216 335.955C223.576 335.583 224.034 335.292 224.591 335.08C225.144 334.867 225.803 334.761 226.568 334.761H227.199V341.915H225.812V336.733C225.419 336.737 225.068 336.822 224.761 336.989C224.451 337.155 224.206 337.388 224.028 337.688C223.85 337.983 223.761 338.328 223.761 338.722C223.761 339.142 223.864 339.511 224.068 339.83C224.269 340.148 224.534 340.396 224.864 340.574C225.189 340.748 225.547 340.837 225.938 340.841H227.148C227.655 340.841 228.091 340.748 228.455 340.562C228.814 340.377 229.091 340.117 229.284 339.784C229.473 339.451 229.568 339.061 229.568 338.614C229.568 338.314 229.527 338.044 229.443 337.801C229.356 337.559 229.229 337.348 229.062 337.17C228.896 336.992 228.689 336.858 228.443 336.767L228.659 334.847C229.167 334.968 229.61 335.199 229.989 335.54C230.364 335.877 230.655 336.309 230.864 336.835C231.068 337.362 231.17 337.964 231.17 338.642ZM224.58 326.124L224.784 327.999C224.595 328.052 224.417 328.144 224.25 328.277C224.083 328.406 223.949 328.58 223.847 328.8C223.744 329.019 223.693 329.288 223.693 329.607C223.693 330.035 223.786 330.394 223.972 330.686C224.157 330.974 224.398 331.116 224.693 331.112C224.947 331.116 225.153 331.023 225.312 330.834C225.472 330.641 225.602 330.322 225.705 329.879L226.023 328.391C226.201 327.565 226.483 326.951 226.869 326.55C227.256 326.144 227.761 325.94 228.386 325.936C228.936 325.94 229.42 326.101 229.841 326.419C230.258 326.733 230.583 327.171 230.818 327.732C231.053 328.292 231.17 328.936 231.17 329.663C231.17 330.732 230.947 331.591 230.5 332.243C230.049 332.894 229.422 333.283 228.619 333.408L228.426 331.402C228.82 331.311 229.117 331.118 229.318 330.822C229.519 330.527 229.619 330.143 229.619 329.669C229.619 329.18 229.519 328.788 229.318 328.493C229.117 328.194 228.869 328.044 228.574 328.044C228.324 328.044 228.117 328.141 227.955 328.334C227.792 328.523 227.667 328.819 227.58 329.22L227.267 330.709C227.093 331.546 226.799 332.165 226.386 332.567C225.97 332.968 225.443 333.167 224.807 333.163C224.269 333.167 223.803 333.021 223.409 332.726C223.011 332.427 222.705 332.012 222.489 331.482C222.269 330.947 222.159 330.332 222.159 329.635C222.159 328.612 222.377 327.807 222.812 327.22C223.248 326.629 223.837 326.264 224.58 326.124ZM222.273 319.882H223.864V324.899H222.273V319.882ZM220.182 323.661V321.604H228.375C228.652 321.604 228.864 321.562 229.011 321.479C229.155 321.392 229.254 321.278 229.307 321.138C229.36 320.998 229.386 320.842 229.386 320.672C229.386 320.543 229.377 320.426 229.358 320.32C229.339 320.21 229.322 320.126 229.307 320.07L230.915 319.723C230.953 319.833 230.994 319.99 231.04 320.195C231.085 320.395 231.112 320.642 231.119 320.933C231.134 321.448 231.057 321.912 230.886 322.325C230.712 322.738 230.443 323.066 230.08 323.308C229.716 323.547 229.261 323.664 228.716 323.661H220.182Z" fill="black"/>
<path d="M326.968 220.364V232H325.093L319.61 224.074H319.513V232H317.406V220.364H319.292L324.769 228.295H324.871V220.364H326.968ZM332.981 232.17C332.129 232.17 331.39 231.983 330.765 231.608C330.14 231.233 329.655 230.708 329.31 230.034C328.969 229.36 328.799 228.572 328.799 227.67C328.799 226.769 328.969 225.979 329.31 225.301C329.655 224.623 330.14 224.097 330.765 223.722C331.39 223.347 332.129 223.159 332.981 223.159C333.833 223.159 334.572 223.347 335.197 223.722C335.822 224.097 336.305 224.623 336.646 225.301C336.99 225.979 337.163 226.769 337.163 227.67C337.163 228.572 336.99 229.36 336.646 230.034C336.305 230.708 335.822 231.233 335.197 231.608C334.572 231.983 333.833 232.17 332.981 232.17ZM332.992 230.523C333.454 230.523 333.841 230.396 334.151 230.142C334.462 229.884 334.693 229.54 334.844 229.108C335 228.676 335.077 228.195 335.077 227.665C335.077 227.131 335 226.648 334.844 226.216C334.693 225.78 334.462 225.434 334.151 225.176C333.841 224.919 333.454 224.79 332.992 224.79C332.519 224.79 332.125 224.919 331.81 225.176C331.5 225.434 331.267 225.78 331.112 226.216C330.96 226.648 330.884 227.131 330.884 227.665C330.884 228.195 330.96 228.676 331.112 229.108C331.267 229.54 331.5 229.884 331.81 230.142C332.125 230.396 332.519 230.523 332.992 230.523ZM338.908 232V223.273H340.903V224.727H340.994C341.153 224.223 341.425 223.835 341.812 223.562C342.202 223.286 342.647 223.148 343.147 223.148C343.261 223.148 343.388 223.153 343.528 223.165C343.672 223.172 343.791 223.186 343.886 223.205V225.097C343.799 225.066 343.66 225.04 343.471 225.017C343.285 224.991 343.105 224.977 342.931 224.977C342.556 224.977 342.219 225.059 341.92 225.222C341.624 225.381 341.391 225.602 341.221 225.886C341.05 226.17 340.965 226.498 340.965 226.869V232H338.908ZM350.079 223.273V224.864H345.062V223.273H350.079ZM346.3 221.182H348.357V229.375C348.357 229.652 348.399 229.864 348.482 230.011C348.569 230.155 348.683 230.254 348.823 230.307C348.963 230.36 349.119 230.386 349.289 230.386C349.418 230.386 349.535 230.377 349.641 230.358C349.751 230.339 349.835 230.322 349.891 230.307L350.238 231.915C350.128 231.953 349.971 231.994 349.766 232.04C349.566 232.085 349.319 232.112 349.028 232.119C348.513 232.134 348.049 232.057 347.636 231.886C347.223 231.712 346.895 231.443 346.653 231.08C346.414 230.716 346.297 230.261 346.3 229.716V221.182ZM354.043 226.886V232H351.987V220.364H353.998V224.756H354.1C354.305 224.263 354.621 223.875 355.049 223.591C355.481 223.303 356.03 223.159 356.697 223.159C357.303 223.159 357.831 223.286 358.282 223.54C358.733 223.794 359.081 224.165 359.327 224.653C359.577 225.142 359.702 225.739 359.702 226.443V232H357.646V226.761C357.646 226.174 357.494 225.718 357.191 225.392C356.892 225.062 356.471 224.898 355.93 224.898C355.566 224.898 355.24 224.977 354.952 225.136C354.668 225.292 354.445 225.517 354.282 225.812C354.123 226.108 354.043 226.466 354.043 226.886Z" fill="black"/>
</svg>
