<svg width="677" height="714" viewBox="0 0 677 714" fill="none" xmlns="http://www.w3.org/2000/svg">
<path d="M339 205L352.856 229H325.144L339 205Z" fill="#E54D4D"/>
<path d="M328.354 3.95044L327.682 3.44054L327.682 3.44055L328.354 3.95044ZM329.773 3.31705L329.547 2.5042L329.547 2.5042L329.773 3.31705ZM337.648 1.12494L337.422 0.312093L337.422 0.312097L337.648 1.12494ZM338.852 1.12494L339.078 0.312097L339.078 0.312093L338.852 1.12494ZM346.727 3.31705L346.953 2.50421L346.953 2.5042L346.727 3.31705ZM348.146 3.95044L347.473 4.46023L347.473 4.46037L348.146 3.95044ZM327 22.6562C326.534 22.6562 326.156 23.034 326.156 23.5C326.156 23.966 326.534 24.3438 327 24.3438V22.6562ZM349.5 24.3438C349.966 24.3438 350.344 23.966 350.344 23.5C350.344 23.034 349.966 22.6562 349.5 22.6562V24.3438ZM337.762 6.67992L337.574 5.85724L337.574 5.85724L337.762 6.67992ZM338.738 6.67992L338.926 5.85724L338.926 5.85724L338.738 6.67992ZM347.039 12.2138C346.584 12.1128 346.134 12.3996 346.033 12.8545C345.932 13.3094 346.218 13.7601 346.673 13.8612L347.039 12.2138ZM348.192 14.1987C348.647 14.2997 349.098 14.0129 349.199 13.558C349.3 13.1031 349.013 12.6524 348.558 12.5513L348.192 14.1987ZM342.483 11.2013C342.028 11.1003 341.577 11.3871 341.476 11.842C341.375 12.2969 341.662 12.7476 342.117 12.8487L342.483 11.2013ZM343.129 13.0737C343.584 13.1747 344.035 12.8879 344.136 12.433C344.237 11.9781 343.95 11.5274 343.496 11.4263L343.129 13.0737ZM339.079 12.1737C339.534 12.2747 339.985 11.9879 340.086 11.533C340.187 11.0781 339.9 10.6274 339.446 10.5263L339.079 12.1737ZM338.25 11.125L338.433 10.3013L338.25 10.2607L338.067 10.3013L338.25 11.125ZM337.054 10.5263C336.6 10.6274 336.313 11.0781 336.414 11.533C336.515 11.9879 336.966 12.2747 337.421 12.1737L337.054 10.5263ZM329.827 13.8612C330.282 13.7601 330.568 13.3094 330.467 12.8545C330.366 12.3996 329.916 12.1128 329.461 12.2138L329.827 13.8612ZM327.942 12.5513C327.487 12.6524 327.2 13.1031 327.301 13.558C327.402 14.0129 327.853 14.2997 328.308 14.1987L327.942 12.5513ZM334.383 12.8487C334.838 12.7476 335.125 12.2969 335.024 11.842C334.923 11.3871 334.472 11.1003 334.017 11.2013L334.383 12.8487ZM333.004 11.4263C332.55 11.5274 332.263 11.9781 332.364 12.433C332.465 12.8879 332.916 13.1747 333.371 13.0737L333.004 11.4263ZM328.125 23.5H328.969V5.48954H328.125H327.281V23.5H328.125ZM328.125 5.48954H328.969C328.969 5.05717 328.97 4.80602 328.992 4.6227C329.001 4.53977 329.013 4.49673 329.02 4.47624C329.023 4.46679 329.025 4.46256 329.026 4.46168C329.026 4.46098 329.026 4.46087 329.027 4.46032L328.354 3.95044L327.682 3.44055C327.443 3.75576 327.354 4.09909 327.316 4.42571C327.28 4.73022 327.281 5.09743 327.281 5.48954H328.125ZM328.354 3.95044L329.027 4.46034C329.027 4.45979 329.027 4.45973 329.028 4.45925C329.028 4.45864 329.032 4.45549 329.04 4.44991C329.057 4.43782 329.095 4.41536 329.172 4.38384C329.342 4.31409 329.583 4.24565 329.999 4.12989L329.773 3.31705L329.547 2.5042C329.17 2.60912 328.816 2.70618 328.532 2.82237C328.228 2.94709 327.921 3.12517 327.682 3.44054L328.354 3.95044ZM329.773 3.31705L329.999 4.1299L337.874 1.93779L337.648 1.12494L337.422 0.312097L329.547 2.5042L329.773 3.31705ZM337.648 1.12494L337.874 1.93779C338.032 1.89385 338.119 1.86984 338.186 1.85501C338.216 1.84842 338.233 1.84574 338.241 1.84459C338.246 1.84405 338.248 1.84386 338.249 1.8438C338.249 1.84377 338.25 1.84376 338.25 1.84375C338.25 1.84375 338.25 1.84375 338.25 1.84375V1V0.15625C337.955 0.15625 337.677 0.240876 337.422 0.312093L337.648 1.12494ZM338.25 1V1.84375C338.25 1.84375 338.25 1.84375 338.25 1.84375C338.25 1.84376 338.251 1.84377 338.251 1.8438C338.252 1.84386 338.254 1.84405 338.259 1.84459C338.267 1.84574 338.284 1.84842 338.314 1.85501C338.381 1.86984 338.468 1.89385 338.626 1.93779L338.852 1.12494L339.078 0.312093C338.823 0.240876 338.545 0.15625 338.25 0.15625V1ZM338.852 1.12494L338.626 1.93779L346.501 4.1299L346.727 3.31705L346.953 2.5042L339.078 0.312097L338.852 1.12494ZM346.727 3.31705L346.501 4.12989C346.917 4.24565 347.158 4.31409 347.328 4.38384C347.405 4.41536 347.443 4.43782 347.46 4.4499C347.468 4.45547 347.472 4.45861 347.472 4.4592C347.473 4.45967 347.473 4.45971 347.473 4.46023L348.146 3.95044L348.818 3.44065C348.579 3.12517 348.272 2.94707 347.968 2.82237C347.684 2.70618 347.33 2.60912 346.953 2.50421L346.727 3.31705ZM348.146 3.95044L347.473 4.46037C347.474 4.46092 347.474 4.46102 347.474 4.46173C347.475 4.4626 347.477 4.46683 347.48 4.47628C347.487 4.49676 347.499 4.53979 347.508 4.62271C347.53 4.80602 347.531 5.05717 347.531 5.48954H348.375H349.219C349.219 5.09743 349.22 4.73022 349.184 4.4257C349.146 4.09906 349.057 3.75572 348.818 3.4405L348.146 3.95044ZM348.375 5.48954H347.531V23.5H348.375H349.219V5.48954H348.375ZM327 23.5V24.3438H349.5V23.5V22.6562H327V23.5ZM328.125 8.875L328.312 9.69768L337.949 7.5026L337.762 6.67992L337.574 5.85724L327.938 8.05232L328.125 8.875ZM337.762 6.67992L337.949 7.5026C338.147 7.45747 338.353 7.45747 338.551 7.5026L338.738 6.67992L338.926 5.85724C338.481 5.75592 338.019 5.75592 337.574 5.85724L337.762 6.67992ZM338.738 6.67992L338.551 7.5026L348.188 9.69768L348.375 8.875L348.562 8.05232L338.926 5.85724L338.738 6.67992ZM346.856 13.0375L346.673 13.8612L348.192 14.1987L348.375 13.375L348.558 12.5513L347.039 12.2138L346.856 13.0375ZM342.3 12.025L342.117 12.8487L343.129 13.0737L343.312 12.25L343.496 11.4263L342.483 11.2013L342.3 12.025ZM339.262 11.35L339.446 10.5263L338.433 10.3013L338.25 11.125L338.067 11.9487L339.079 12.1737L339.262 11.35ZM338.25 11.125L338.067 10.3013L337.054 10.5263L337.238 11.35L337.421 12.1737L338.433 11.9487L338.25 11.125ZM329.644 13.0375L329.461 12.2138L327.942 12.5513L328.125 13.375L328.308 14.1987L329.827 13.8612L329.644 13.0375ZM334.2 12.025L334.017 11.2013L333.004 11.4263L333.188 12.25L333.371 13.0737L334.383 12.8487L334.2 12.025ZM338.25 6.625H337.406V23.5H338.25H339.094V6.625H338.25Z" fill="#F0F8FF"/>
</svg>
