<svg width="25" height="26" viewBox="0 0 25 26" fill="none" xmlns="http://www.w3.org/2000/svg">
<path d="M13.3965 0.500122C14.3418 0.500122 15.1977 1.02512 15.6704 1.80012C15.9003 2.17512 16.0536 2.63762 16.0153 3.12512C15.9897 3.50012 16.1047 3.87512 16.3091 4.22512C16.9606 5.28762 18.4041 5.68762 19.5283 5.08762C20.7929 4.36262 22.3898 4.80012 23.1179 6.03762L23.9738 7.51262C24.7147 8.75012 24.3059 10.3376 23.0285 11.0501C21.9427 11.6876 21.5594 13.1001 22.2109 14.1751C22.4153 14.5126 22.6452 14.8001 23.0029 14.9751C23.45 15.2126 23.7949 15.5876 24.0377 15.9626C24.5103 16.7376 24.472 17.6876 24.0121 18.5251L23.1179 20.0251C22.6452 20.8251 21.7638 21.3251 20.8568 21.3251C20.4097 21.3251 19.9115 21.2001 19.5027 20.9501C19.1706 20.7376 18.7874 20.6626 18.3786 20.6626C17.1139 20.6626 16.0536 21.7001 16.0153 22.9376C16.0153 24.3751 14.84 25.5001 13.371 25.5001H11.6337C10.1518 25.5001 8.97657 24.3751 8.97657 22.9376C8.95102 21.7001 7.89074 20.6626 6.62606 20.6626C6.20451 20.6626 5.82127 20.7376 5.50191 20.9501C5.09313 21.2001 4.58215 21.3251 4.14782 21.3251C3.22806 21.3251 2.34662 20.8251 1.87396 20.0251L0.992525 18.5251C0.519869 17.7126 0.494321 16.7376 0.966976 15.9626C1.17137 15.5876 1.5546 15.2126 1.98893 14.9751C2.34662 14.8001 2.57656 14.5126 2.79372 14.1751C3.43245 13.1001 3.04921 11.6876 1.96338 11.0501C0.698712 10.3376 0.289929 8.75012 1.01807 7.51262L1.87396 6.03762C2.61488 4.80012 4.19892 4.36262 5.47636 5.08762C6.58774 5.68762 8.03126 5.28762 8.68275 4.22512C8.88715 3.87512 9.00212 3.50012 8.97657 3.12512C8.95102 2.63762 9.09154 2.17512 9.33425 1.80012C9.80691 1.02512 10.6628 0.525122 11.5953 0.500122H13.3965ZM12.5151 9.47512C10.5095 9.47512 8.88715 11.0501 8.88715 13.0126C8.88715 14.9751 10.5095 16.5376 12.5151 16.5376C14.5207 16.5376 16.1047 14.9751 16.1047 13.0126C16.1047 11.0501 14.5207 9.47512 12.5151 9.47512Z" fill="white"/>
</svg>
