<svg width="22" height="23" viewBox="0 0 22 23" fill="none" xmlns="http://www.w3.org/2000/svg">
<path d="M11.755 1C12.551 1 13.2718 1.441 13.6698 2.092C13.8634 2.407 13.9925 2.7955 13.9603 3.205C13.9387 3.52 14.0356 3.835 14.2077 4.129C14.7563 5.0215 15.9719 5.3575 16.9185 4.8535C17.9835 4.2445 19.3282 4.612 19.9414 5.6515L20.6621 6.8905C21.2861 7.93 20.9418 9.2635 19.8661 9.862C18.9517 10.3975 18.629 11.584 19.1776 12.487C19.3497 12.7705 19.5434 13.012 19.8446 13.159C20.2211 13.3585 20.5115 13.6735 20.7159 13.9885C21.114 14.6395 21.0817 15.4375 20.6944 16.141L19.9414 17.401C19.5434 18.073 18.8011 18.493 18.0373 18.493C17.6608 18.493 17.2413 18.388 16.897 18.178C16.6173 17.9995 16.2946 17.9365 15.9504 17.9365C14.8854 17.9365 13.9925 18.808 13.9603 19.8475C13.9603 21.055 12.9706 22 11.7335 22H10.2704C9.02258 22 8.0329 21.055 8.0329 19.8475C8.01138 18.808 7.11852 17.9365 6.05353 17.9365C5.69853 17.9365 5.37581 17.9995 5.10687 18.178C4.76263 18.388 4.33234 18.493 3.96658 18.493C3.19205 18.493 2.44978 18.073 2.05176 17.401L1.30949 16.141C0.911469 15.4585 0.889954 14.6395 1.28798 13.9885C1.4601 13.6735 1.78282 13.3585 2.14858 13.159C2.44978 13.012 2.64342 12.7705 2.82629 12.487C3.36417 11.584 3.04144 10.3975 2.12706 9.862C1.06207 9.2635 0.717835 7.93 1.33101 6.8905L2.05176 5.6515C2.67569 4.612 4.00961 4.2445 5.08536 4.8535C6.02126 5.3575 7.23685 5.0215 7.78548 4.129C7.9576 3.835 8.05441 3.52 8.0329 3.205C8.01138 2.7955 8.12972 2.407 8.33411 2.092C8.73213 1.441 9.45288 1.021 10.2382 1H11.755ZM11.0127 8.539C9.32379 8.539 7.9576 9.862 7.9576 11.5105C7.9576 13.159 9.32379 14.4715 11.0127 14.4715C12.7016 14.4715 14.0356 13.159 14.0356 11.5105C14.0356 9.862 12.7016 8.539 11.0127 8.539Z" fill="white"/>
</svg>
