<svg width="361" height="362" viewBox="0 0 361 362" fill="none" xmlns="http://www.w3.org/2000/svg" xmlns:xlink="http://www.w3.org/1999/xlink">
<circle cx="180.5" cy="181.068" r="180" fill="#F0F8FF"/>
<path d="M181.16 1.06836V361.068M190.579 1.34905L171.738 360.856M199.969 2.12235L162.339 360.15M209.307 3.3861L152.991 358.954M218.567 5.13678L143.719 357.27M227.722 7.36969L134.547 355.103M236.747 10.0786L125.501 352.459M245.618 13.2563L116.606 349.345M254.311 16.8938L107.886 345.77M262.802 20.9813L99.3656 341.744M271.067 25.5076L91.0671 337.277M279.084 30.4602L83.0138 332.382M286.831 35.8256L75.2281 327.072M294.286 41.5891L67.7311 321.362M301.429 47.7349L60.5423 315.267M308.241 54.2461L53.6826 308.804M314.703 61.1048L47.1707 301.992M320.796 68.2924L41.0238 294.848M326.507 75.789L35.2607 287.392M331.816 83.5742L29.8945 279.644M336.711 91.6266L24.9416 271.627M341.178 99.9241L20.4155 263.361M345.203 108.444L16.3271 254.869M348.779 117.163L12.6901 246.175M351.892 126.057L9.51153 237.303M354.536 135.102L6.80282 228.277M356.702 144.273L4.56893 219.121M358.386 153.544L2.81815 209.861M359.582 162.891L1.55407 200.522M360.287 172.288L0.780639 191.129M360.5 181.709L0.5 181.709M360.219 191.128L0.712623 172.287M359.446 200.52L1.41823 162.89M358.182 209.858L2.61483 153.542M356.432 219.117L4.29869 144.269M354.199 228.272L6.46642 135.097M351.49 237.298L9.1099 126.052M348.313 246.169L12.2243 117.157M344.675 254.862L15.7985 108.437M340.587 263.353L19.8254 99.9162M336.061 271.618L24.2917 91.6178M331.108 279.635L29.1866 83.5646M325.743 287.381L34.4968 75.7786M319.979 294.836L40.2068 68.2812M313.834 301.98L46.302 61.093M307.323 308.792L52.7645 54.2335M300.464 315.254L59.5774 47.7217M293.277 321.348L66.7219 41.5753M285.78 327.057L74.1775 35.8114M277.995 332.367L81.9247 30.4454M269.943 337.261L89.9435 25.4923M261.646 341.728L98.2094 20.9657M253.126 345.754L106.701 16.8778M244.407 349.329L115.394 13.24M235.513 352.442L124.267 10.0621M226.468 355.086L133.293 7.35302M217.298 357.253L142.45 5.11996M208.025 358.937L151.709 3.3692M198.678 360.133L161.048 2.10545M189.282 360.838L170.441 1.33226M180.235 361.051L180.235 1.05168" stroke="#0A2239" stroke-opacity="0.84" stroke-width="1.3"/>
<circle cx="180.768" cy="181.337" r="173.368" fill="#F0F8FF"/>
<circle cx="180.252" cy="182.105" r="107.404" stroke="#0A2239" stroke-opacity="0.61" stroke-width="0.686287"/>
<circle cx="180.441" cy="181.009" r="59.6842" fill="#F0F8FF" stroke="#0A2239" stroke-opacity="0.61" stroke-width="0.69"/>
<path d="M176.432 79.263V69.5089H179.002L182.13 76.3639H182.387V69.5089H184.358V79.263H181.816L178.66 72.2937H178.402V79.263H176.432Z" fill="#0A2239"/>
<path d="M181.822 286.102C182.111 286.102 182.427 286.122 182.77 286.16C183.113 286.19 183.448 286.228 183.775 286.274C184.095 286.327 184.37 286.373 184.598 286.411L184.495 287.656C184.259 287.626 183.985 287.592 183.673 287.553C183.36 287.523 183.052 287.496 182.747 287.473C182.435 287.451 182.165 287.439 181.936 287.439C181.647 287.439 181.411 287.477 181.228 287.553C181.045 287.63 180.912 287.744 180.828 287.896C180.736 288.056 180.691 288.258 180.691 288.502C180.691 288.7 180.733 288.856 180.816 288.97C180.893 289.092 181.033 289.187 181.239 289.256C181.445 289.332 181.73 289.404 182.096 289.473C182.553 289.557 182.945 289.656 183.273 289.77C183.593 289.884 183.855 290.025 184.061 290.193C184.267 290.368 184.419 290.589 184.518 290.855C184.61 291.122 184.655 291.446 184.655 291.826C184.655 292.42 184.545 292.885 184.324 293.22C184.103 293.563 183.787 293.807 183.376 293.951C182.964 294.096 182.481 294.168 181.925 294.168C181.673 294.168 181.388 294.153 181.068 294.123C180.74 294.1 180.42 294.069 180.108 294.031C179.788 293.993 179.518 293.951 179.297 293.906L179.365 292.649C179.594 292.679 179.861 292.706 180.165 292.729C180.462 292.759 180.759 292.786 181.056 292.809C181.346 292.832 181.593 292.843 181.799 292.843C182.081 292.843 182.317 292.813 182.507 292.752C182.698 292.691 182.839 292.596 182.93 292.466C183.021 292.337 183.067 292.173 183.067 291.975C183.067 291.746 183.021 291.571 182.93 291.449C182.839 291.327 182.686 291.228 182.473 291.152C182.252 291.076 181.951 290.996 181.57 290.912C181.121 290.813 180.74 290.707 180.428 290.592C180.108 290.478 179.853 290.341 179.662 290.181C179.464 290.021 179.32 289.816 179.228 289.564C179.137 289.313 179.091 288.997 179.091 288.616C179.091 288.007 179.202 287.515 179.423 287.142C179.636 286.777 179.948 286.51 180.359 286.342C180.763 286.182 181.251 286.102 181.822 286.102Z" fill="#0A2239"/>
<path d="M283.905 179.239H292.684V185.074H291.206V181.013H289.072V184.303H287.62V181.013H285.383V185.074H283.905V179.239Z" fill="#0A2239"/>
<path d="M77.5679 185.536L69.7646 186.861V185.273L76.0484 184.313V184.039L69.8446 182.851V181.08L76.0484 179.869V179.595L69.7646 178.692V177.093L77.5679 178.395V180.897L71.3756 182.005V181.948L77.5679 183.068V185.536Z" fill="#0A2239"/>
<path d="M182.5 0V11.5H179.5V0H182.5Z" fill="#0A2239"/>
<path d="M0 181H11.5V184H0V181Z" fill="#0A2239"/>
<path d="M349.5 181H361V184H349.5V181Z" fill="#0A2239"/>
<path d="M182.5 350V361.5H179.5V350H182.5Z" fill="#0A2239"/>
<defs>
<g id="stroke0_381_902" data-figma-scatter-ref="stroke0_381_902_ref" data-figma-scatter="f0.25_w0_aj30_sj0_r0_s0_sw0.714">
</g>
<path id="stroke0_381_902_ref" d="M81.5673 181.902C81.5673 186.64 77.7266 190.481 72.9887 190.481C68.2509 190.481 64.4102 186.64 64.4102 181.902C64.4102 177.164 68.2509 173.324 72.9887 173.324C77.7266 173.324 81.5673 177.164 81.5673 181.902ZM188.629 289.649C188.629 294.387 184.788 298.228 180.05 298.228C175.312 298.228 171.471 294.387 171.471 289.649C171.471 284.912 175.312 281.071 180.05 281.071C184.788 281.071 188.629 284.912 188.629 289.649ZM295.689 181.902C295.689 186.64 291.848 190.481 287.11 190.481C282.372 190.481 278.532 186.64 278.532 181.902C278.532 177.165 282.372 173.324 287.11 173.324C291.848 173.324 295.689 177.165 295.689 181.902ZM189.314 74.1552C189.314 78.893 185.473 82.7338 180.735 82.7338C175.998 82.7338 172.157 78.893 172.157 74.1552C172.157 69.4174 175.998 65.5766 180.735 65.5766C185.473 65.5766 189.314 69.4174 189.314 74.1552ZM247.794 181.81C247.794 218.88 217.742 248.932 180.672 248.932C143.601 248.932 113.55 218.88 113.55 181.81C113.55 144.74 143.601 114.688 180.672 114.688C217.742 114.688 247.794 144.74 247.794 181.81Z"/>
</defs>
</svg>
